<svg width="894" height="136" viewBox="0 0 894 136" fill="none" xmlns="http://www.w3.org/2000/svg">
<path d="M12.1909 134.38C11.0509 134.38 9.2776 134.317 6.87094 134.19C4.59094 134.063 2.31094 133.873 0.0309375 133.62L32.5209 4.22999C32.9009 1.82333 35.4343 0.619996 40.1209 0.619996C41.7676 0.619996 43.4143 0.683328 45.0609 0.809993C46.7076 0.936658 48.1009 1.06332 49.2409 1.18999L81.7309 130.77C81.9843 131.91 81.6043 132.797 80.5909 133.43C79.5776 134.063 77.1076 134.38 73.1809 134.38C71.9143 134.38 70.3309 134.317 68.4309 134.19C66.5309 134.19 64.3143 134.127 61.7809 134L46.5809 64.46C45.9476 60.7867 45.2509 56.86 44.4909 52.68C43.7309 48.5 43.0343 44.32 42.4009 40.14C41.8943 35.8333 41.5143 31.9067 41.2609 28.36C40.8809 31.9067 40.3743 35.8333 39.7409 40.14C39.1076 44.32 38.4743 48.5 37.8409 52.68C37.2076 56.86 36.4476 60.7867 35.5609 64.46L21.1209 130.58C20.8676 131.847 20.2976 132.797 19.4109 133.43C18.5243 134.063 16.1176 134.38 12.1909 134.38ZM20.9309 102.65V85.17H64.6309V102.65H20.9309ZM94.9404 81.75C92.7871 81.75 91.5837 81.4333 91.3304 80.8C91.0771 80.04 90.9504 78.71 90.9504 76.81V4.8C90.9504 4.67333 90.9504 4.03999 90.9504 2.89999C91.0771 1.63332 92.0904 0.999991 93.9904 0.999991H110.71C118.69 0.999991 125.34 2.20332 130.66 4.60999C136.107 6.88999 140.16 10.8167 142.82 16.39C145.607 21.9633 147 29.69 147 39.57C147 47.93 145.987 54.8333 143.96 60.28C142.06 65.7267 139.4 70.0333 135.98 73.2C132.56 76.3667 128.697 78.5833 124.39 79.85C120.21 81.1167 115.84 81.75 111.28 81.75H94.9404ZM88.8604 134V4.60999C88.8604 3.34332 89.0504 2.45666 89.4304 1.94999C89.9371 1.31666 90.9504 0.999991 92.4704 0.999991H104.63C106.53 0.999991 107.607 1.63332 107.86 2.89999C108.114 4.03999 108.24 4.60999 108.24 4.60999V130.39C108.24 131.657 107.924 132.543 107.29 133.05C106.784 133.43 105.2 133.683 102.54 133.81C99.8804 133.937 95.3204 134 88.8604 134ZM108.24 63.89H113.56C116.094 63.89 118.184 63.1933 119.83 61.8C121.604 60.28 122.934 57.62 123.82 53.82C124.834 49.8933 125.34 44.3833 125.34 37.29C125.34 33.11 124.96 29.5633 124.2 26.65C123.567 23.7367 122.49 21.5833 120.97 20.19C119.45 18.67 117.36 17.91 114.7 17.91H108.24V63.89ZM155.248 134.38C154.108 134.38 152.334 134.317 149.928 134.19C147.648 134.063 145.368 133.873 143.088 133.62L175.578 4.22999C175.958 1.82333 178.491 0.619996 183.178 0.619996C184.824 0.619996 186.471 0.683328 188.118 0.809993C189.764 0.936658 191.158 1.06332 192.298 1.18999L224.788 130.77C225.041 131.91 224.661 132.797 223.648 133.43C222.634 134.063 220.164 134.38 216.238 134.38C214.971 134.38 213.388 134.317 211.488 134.19C209.588 134.19 207.371 134.127 204.838 134L189.638 64.46C189.004 60.7867 188.308 56.86 187.548 52.68C186.788 48.5 186.091 44.32 185.458 40.14C184.951 35.8333 184.571 31.9067 184.318 28.36C183.938 31.9067 183.431 35.8333 182.798 40.14C182.164 44.32 181.531 48.5 180.898 52.68C180.264 56.86 179.504 60.7867 178.618 64.46L164.178 130.58C163.924 131.847 163.354 132.797 162.468 133.43C161.581 134.063 159.174 134.38 155.248 134.38ZM163.988 102.65V85.17H207.688V102.65H163.988ZM237.997 81.75C235.844 81.75 234.64 81.4333 234.387 80.8C234.134 80.04 234.007 78.71 234.007 76.81V4.8C234.007 4.67333 234.007 4.03999 234.007 2.89999C234.134 1.63332 235.147 0.999991 237.047 0.999991H253.767C261.747 0.999991 268.397 2.20332 273.717 4.60999C279.164 6.88999 283.217 10.8167 285.877 16.39C288.664 21.9633 290.057 29.69 290.057 39.57C290.057 47.93 289.044 54.8333 287.017 60.28C285.117 65.7267 282.457 70.0333 279.037 73.2C275.617 76.3667 271.754 78.5833 267.447 79.85C263.267 81.1167 258.897 81.75 254.337 81.75H237.997ZM231.917 134V4.60999C231.917 4.60999 232.044 4.03999 232.297 2.89999C232.677 1.63332 233.754 0.999991 235.527 0.999991H247.687C249.587 0.999991 250.664 1.63332 250.917 2.89999C251.17 4.03999 251.297 4.60999 251.297 4.60999V130.39C251.297 131.657 250.98 132.543 250.347 133.05C249.84 133.43 248.194 133.683 245.407 133.81C242.747 133.937 238.25 134 231.917 134ZM282.647 134.57C281.127 134.57 279.354 134.507 277.327 134.38C275.427 134.253 273.4 134.127 271.247 134C270.867 122.98 269.79 113.797 268.017 106.45C266.244 99.1033 264.28 93.34 262.127 89.16C259.974 84.98 258.074 82.0033 256.427 80.23C254.907 78.4567 254.147 77.57 254.147 77.57C254.147 77.57 253.957 77.1267 253.577 76.24C253.324 75.3533 253.957 74.53 255.477 73.77L266.307 67.5C268.207 67.5 269.41 68.1967 269.917 69.59C269.917 69.59 270.994 70.6667 273.147 72.82C275.3 74.9733 277.77 78.4567 280.557 83.27C283.47 88.0833 286.067 94.3533 288.347 102.08C290.754 109.68 292.147 118.99 292.527 130.01C292.527 131.657 292.02 132.86 291.007 133.62C290.12 134.253 287.334 134.57 282.647 134.57ZM251.297 63.89H256.617C259.15 63.89 261.24 63.1933 262.887 61.8C264.66 60.28 265.99 57.6833 266.877 54.01C267.89 50.3367 268.397 45.2067 268.397 38.62C268.397 33.9333 268.017 30.07 267.257 27.03C266.624 23.8633 265.547 21.5833 264.027 20.19C262.507 18.67 260.417 17.91 257.757 17.91H251.297V63.89ZM317.723 134V3.09C317.723 3.09 317.849 3.09 318.103 3.09C318.483 2.96333 319.559 2.89999 321.333 2.89999H333.493C335.266 2.89999 336.279 2.96333 336.533 3.09C336.913 3.09 337.103 3.09 337.103 3.09V130.39C337.103 131.657 336.786 132.543 336.153 133.05C335.646 133.43 333.999 133.683 331.213 133.81C328.553 133.937 324.056 134 317.723 134ZM293.593 19.24V4.60999C293.593 2.20332 294.796 0.999991 297.203 0.999991H361.803V15.63C361.803 17.0233 361.549 17.9733 361.043 18.48C360.536 18.9867 359.586 19.24 358.193 19.24H293.593ZM356.967 88.78C356.967 82.9533 357.093 78.71 357.347 76.05C357.727 73.39 358.803 72.06 360.577 72.06H395.727C395.727 77.76 395.6 82.0033 395.347 84.79C395.093 87.45 394.017 88.78 392.117 88.78H356.967ZM408.562 134V4.8C408.562 3.53333 408.879 2.58332 409.512 1.94999C410.272 1.31666 411.665 0.999991 413.692 0.999991H432.122C438.329 0.999991 443.775 1.88666 448.462 3.65999C453.149 5.43332 457.012 8.53666 460.052 12.97C463.092 17.2767 465.372 23.3567 466.892 31.21C468.412 38.9367 469.172 48.8167 469.172 60.85C469.172 73.8967 468.412 85.1067 466.892 94.48C465.499 103.727 463.282 111.263 460.242 117.09C457.329 122.917 453.592 127.223 449.032 130.01C444.472 132.67 439.025 134 432.692 134H408.562ZM427.942 115.57H433.262C435.035 115.57 436.745 114.937 438.392 113.67C440.039 112.403 441.495 109.807 442.762 105.88C444.029 101.953 445.042 96.2533 445.802 88.78C446.562 81.18 446.942 71.1733 446.942 58.76C446.942 50.1467 446.625 43.2433 445.992 38.05C445.359 32.73 444.472 28.6767 443.332 25.89C442.192 23.1033 440.735 21.2033 438.962 20.19C437.315 19.1767 435.352 18.67 433.072 18.67H427.942V115.57ZM478.699 134V4.60999C478.699 4.60999 478.825 4.03999 479.079 2.89999C479.459 1.63332 480.535 0.999991 482.309 0.999991H527.719C527.719 6.19333 527.655 9.99333 527.529 12.4C527.529 14.8067 527.275 16.39 526.769 17.15C526.262 17.91 525.439 18.29 524.299 18.29H498.079V116.71H526.579C526.579 122.03 526.515 125.957 526.389 128.49C526.389 130.897 526.135 132.417 525.629 133.05C525.122 133.683 524.299 134 523.159 134H478.699ZM480.409 70.73V53.06H522.779C522.779 60.28 522.652 65.03 522.399 67.31C522.145 69.59 521.132 70.73 519.359 70.73H480.409ZM536.585 134V6.12999C536.585 4.35666 536.838 3.15333 537.345 2.51999C537.978 1.76 539.625 1.31666 542.285 1.18999C545.072 1.06332 549.695 0.999991 556.155 0.999991V115.76H584.845V130.39C584.845 131.91 584.465 132.923 583.705 133.43C583.072 133.81 582.248 134 581.235 134H536.585ZM594.105 134V9.54999C594.105 6.63666 594.358 4.60999 594.865 3.46999C595.498 2.32999 597.208 1.63333 599.995 1.38C602.781 1.12666 607.405 0.999991 613.865 0.999991V130.39C613.865 131.657 613.548 132.543 612.915 133.05C612.408 133.43 610.761 133.683 607.975 133.81C605.315 133.937 600.691 134 594.105 134ZM656.206 135.14C653.04 135.14 650.57 134.127 648.796 132.1C647.023 129.947 645.82 127.287 645.186 124.12C643.92 118.927 642.526 112.53 641.006 104.93C639.486 97.2033 637.84 88.9067 636.066 80.04C634.293 71.1733 632.52 62.4333 630.746 53.82C629.1 45.08 627.58 37.1 626.186 29.88C624.92 22.66 623.843 16.8967 622.956 12.59C622.196 8.28332 621.816 6.12999 621.816 6.12999C621.436 4.22999 621.373 2.9 621.626 2.14C622.006 1.37999 623.526 0.999991 626.186 0.999991H642.336L653.736 66.74C654.876 72.6933 655.826 78.8367 656.586 85.17C657.473 91.5033 658.296 97.52 659.056 103.22C659.816 108.92 660.45 113.797 660.956 117.85C661.463 113.797 662.033 108.92 662.666 103.22C663.3 97.52 663.996 91.5033 664.756 85.17C665.643 78.8367 666.53 72.6933 667.416 66.74L677.486 6.31999C677.74 4.41999 678.183 3.08999 678.816 2.33C679.45 1.44333 680.653 0.999991 682.426 0.999991H699.336L672.926 134.19C670.14 134.57 667.543 134.823 665.136 134.95C662.856 135.077 659.88 135.14 656.206 135.14ZM706.921 134V4.60999C706.921 4.60999 707.048 4.03999 707.301 2.89999C707.681 1.63332 708.758 0.999991 710.531 0.999991H755.941C755.941 6.19333 755.878 9.99333 755.751 12.4C755.751 14.8067 755.498 16.39 754.991 17.15C754.485 17.91 753.661 18.29 752.521 18.29H726.301V116.71H754.801C754.801 122.03 754.738 125.957 754.611 128.49C754.611 130.897 754.358 132.417 753.851 133.05C753.345 133.683 752.521 134 751.381 134H706.921ZM708.631 70.73V53.06H751.001C751.001 60.28 750.875 65.03 750.621 67.31C750.368 69.59 749.355 70.73 747.581 70.73H708.631ZM770.888 81.75C768.734 81.75 767.531 81.4333 767.278 80.8C767.024 80.04 766.898 78.71 766.898 76.81V4.8C766.898 4.67333 766.898 4.03999 766.898 2.89999C767.024 1.63332 768.038 0.999991 769.938 0.999991H786.658C794.638 0.999991 801.288 2.20332 806.608 4.60999C812.054 6.88999 816.108 10.8167 818.768 16.39C821.554 21.9633 822.948 29.69 822.948 39.57C822.948 47.93 821.934 54.8333 819.908 60.28C818.008 65.7267 815.348 70.0333 811.928 73.2C808.508 76.3667 804.644 78.5833 800.338 79.85C796.158 81.1167 791.788 81.75 787.228 81.75H770.888ZM764.808 134V4.60999C764.808 4.60999 764.934 4.03999 765.188 2.89999C765.568 1.63332 766.644 0.999991 768.418 0.999991H780.578C782.478 0.999991 783.554 1.63332 783.808 2.89999C784.061 4.03999 784.188 4.60999 784.188 4.60999V130.39C784.188 131.657 783.871 132.543 783.238 133.05C782.731 133.43 781.084 133.683 778.298 133.81C775.638 133.937 771.141 134 764.808 134ZM815.538 134.57C814.018 134.57 812.244 134.507 810.218 134.38C808.318 134.253 806.291 134.127 804.138 134C803.758 122.98 802.681 113.797 800.908 106.45C799.134 99.1033 797.171 93.34 795.018 89.16C792.864 84.98 790.964 82.0033 789.318 80.23C787.798 78.4567 787.038 77.57 787.038 77.57C787.038 77.57 786.848 77.1267 786.468 76.24C786.214 75.3533 786.848 74.53 788.368 73.77L799.198 67.5C801.098 67.5 802.301 68.1967 802.808 69.59C802.808 69.59 803.884 70.6667 806.038 72.82C808.191 74.9733 810.661 78.4567 813.448 83.27C816.361 88.0833 818.958 94.3533 821.238 102.08C823.644 109.68 825.038 118.99 825.418 130.01C825.418 131.657 824.911 132.86 823.898 133.62C823.011 134.253 820.224 134.57 815.538 134.57ZM784.188 63.89H789.508C792.041 63.89 794.131 63.1933 795.778 61.8C797.551 60.28 798.881 57.6833 799.768 54.01C800.781 50.3367 801.288 45.2067 801.288 38.62C801.288 33.9333 800.908 30.07 800.148 27.03C799.514 23.8633 798.438 21.5833 796.918 20.19C795.398 18.67 793.308 17.91 790.648 17.91H784.188V63.89ZM865.813 91.63H854.413L825.913 4.04C825.533 2.9 825.597 2.14 826.103 1.75999C826.737 1.37999 828.637 1.18999 831.803 1.18999C835.097 1.06332 840.48 0.999991 847.953 0.999991L854.223 26.27C854.857 28.8033 855.49 31.8433 856.123 35.39C856.883 38.81 857.58 42.3567 858.213 46.03C858.973 49.7033 859.543 53.1233 859.923 56.29C860.43 59.33 860.747 61.8 860.873 63.7C861.127 61.8 861.443 59.33 861.823 56.29C862.33 53.1233 862.9 49.7033 863.533 46.03C864.167 42.3567 864.863 38.7467 865.623 35.2C866.383 31.6533 867.08 28.6133 867.713 26.08L872.843 4.41999C873.223 3.27999 873.73 2.51999 874.363 2.14C875.123 1.63333 876.897 1.31666 879.683 1.18999C882.47 1.06332 887.157 0.999991 893.743 0.999991L865.813 91.63ZM850.423 134V65.98H869.803V130.39C869.803 131.657 869.55 132.543 869.043 133.05C868.537 133.43 866.953 133.683 864.293 133.81C861.633 133.937 857.01 134 850.423 134Z" fill="white"/>
</svg>
