<svg width="1086" height="126" viewBox="0 0 1086 126" fill="none" xmlns="http://www.w3.org/2000/svg">
<path d="M100.556 1.98L110.993 10.947C106.583 19.277 102.614 27.068 99.0858 34.32C95.6558 41.572 92.3728 48.677 89.2368 55.635C86.1988 62.495 83.2098 69.6 80.2698 76.95C77.3298 84.202 74.2428 91.993 71.0088 100.323H63.0708L64.3938 84.741C71.0578 72.687 77.2318 59.849 82.9158 46.227C88.6978 32.507 94.5778 17.758 100.556 1.98ZM29.8488 12.417C29.3588 17.317 28.9668 22.952 28.6728 29.322C28.3788 35.692 28.1828 42.405 28.0848 49.461C27.9868 56.517 27.9378 63.573 27.9378 70.629C28.0358 77.587 28.1828 84.153 28.3788 90.327L44.1078 93.414L42.0498 99C38.4238 98.804 35.1408 98.706 32.2008 98.706C29.2608 98.608 25.8798 98.559 22.0578 98.559C17.4518 98.559 13.5808 98.608 10.4448 98.706C7.40684 98.706 4.61384 98.804 2.06584 99L0.15484 93.414L14.8548 90.327C15.6388 81.899 16.2758 73.177 16.7658 64.161C17.3538 55.047 17.7458 46.031 17.9418 37.113C18.2358 28.195 18.3828 19.865 18.3828 12.123L3.82984 8.007L6.18184 1.98C9.31784 2.07799 12.2088 2.17599 14.8548 2.27399C17.5988 2.372 20.6368 2.421 23.9688 2.421C26.9088 2.421 29.7998 2.372 32.6418 2.27399C35.4838 2.17599 38.0318 2.07799 40.2858 1.98C43.5198 9.232 46.5578 15.994 49.3998 22.266C52.2418 28.538 55.0838 34.614 57.9258 40.494C60.7678 46.374 63.7568 52.303 66.8928 58.281C70.0288 64.161 73.5568 70.433 77.4768 77.097L71.0088 100.323H63.0708C59.4448 92.385 56.2108 85.525 53.3688 79.743C50.6248 73.863 48.0768 68.62 45.7248 64.014C43.4708 59.31 41.2658 54.851 39.1098 50.637C36.9538 46.423 34.6998 42.013 32.3478 37.407C30.0938 32.801 27.5458 27.607 24.7038 21.825L29.8488 12.417ZM134.072 1.98L136.424 8.007L122.753 12.123C123.047 18.787 123.292 24.765 123.488 30.057C123.684 35.349 123.88 40.298 124.076 44.904C124.272 49.412 124.468 53.92 124.664 58.428C124.86 62.936 125.056 67.787 125.252 72.981C125.546 78.077 125.889 83.859 126.281 90.327L139.952 93.414L137.6 99C135.052 98.804 132.161 98.706 128.927 98.706C125.693 98.608 121.185 98.559 115.403 98.559C110.111 98.559 105.75 98.608 102.32 98.706C98.9878 98.804 95.8518 98.902 92.9118 99L90.8538 93.414L104.525 90.327C104.329 79.743 104.035 70.139 103.643 61.515C103.349 52.793 103.006 44.316 102.614 36.084C102.222 27.754 101.683 18.934 100.997 9.62399L100.556 1.98C102.712 2.07799 105.113 2.17599 107.759 2.27399C110.405 2.372 113.1 2.421 115.844 2.421C118.98 2.421 122.165 2.372 125.399 2.27399C128.633 2.17599 131.524 2.07799 134.072 1.98ZM198.141 1.39199C203.923 17.562 210.097 33.193 216.663 48.285C223.327 63.279 229.452 77.293 235.038 90.327L246.504 93.414L244.593 99C241.555 98.804 238.125 98.706 234.303 98.706C230.579 98.608 227.198 98.559 224.16 98.559C222.396 98.559 220.044 98.608 217.104 98.706C214.262 98.706 211.42 98.755 208.578 98.853C205.736 98.853 203.433 98.902 201.669 99L199.611 93.414L211.077 90.327C208.137 82.781 204.413 73.618 199.905 62.838C195.495 51.96 190.742 40.445 185.646 28.293L198.141 1.39199ZM198.141 1.39199C197.455 3.156 196.769 4.773 196.083 6.24299C195.495 7.71299 194.858 9.47699 194.172 11.535C193.486 13.593 192.751 16.386 191.967 19.914C190.105 25.01 187.998 30.743 185.646 37.113C183.392 43.385 181.04 49.804 178.59 56.37C176.238 62.838 174.082 69.061 172.122 75.039C170.162 80.919 168.643 86.015 167.565 90.327L178.443 93.414L176.532 99C170.26 98.706 164.478 98.559 159.186 98.559C154.286 98.559 149.19 98.706 143.898 99L141.987 93.414L152.865 90.327C154.727 86.897 156.883 82.585 159.333 77.391C161.881 72.099 164.527 66.268 167.271 59.898C170.113 53.528 172.955 46.913 175.797 40.053C178.639 33.193 181.334 26.48 183.882 19.914C186.43 13.25 188.684 7.076 190.644 1.39199H198.141ZM211.812 65.925V77.391C207.598 76.901 203.58 76.607 199.758 76.509C196.034 76.411 192.604 76.362 189.468 76.362C186.136 76.362 182.853 76.411 179.619 76.509C176.483 76.607 173.004 76.901 169.182 77.391V66.072C173.004 66.562 176.483 66.905 179.619 67.101C182.853 67.297 186.136 67.395 189.468 67.395C192.604 67.395 196.034 67.297 199.758 67.101C203.58 66.905 207.598 66.513 211.812 65.925ZM287.347 72.981C287.249 77.587 286.759 81.948 285.877 86.064C285.093 90.18 283.525 94.296 281.173 98.412C278.821 102.43 275.342 106.644 270.736 111.054C266.228 115.562 260.152 120.462 252.508 125.754L247.51 119.433C252.116 114.925 255.693 110.515 258.241 106.203C260.887 101.989 262.749 97.285 263.827 92.091C265.003 86.799 265.689 80.527 265.885 73.275C266.375 59.849 266.424 47.746 266.032 36.966C265.64 26.186 265.346 17.709 265.15 11.535L251.038 7.71299L252.508 1.98C254.762 2.07799 256.967 2.17599 259.123 2.27399C261.377 2.372 263.876 2.47 266.62 2.568C269.364 2.568 272.745 2.568 276.763 2.568C282.545 2.568 287.004 2.519 290.14 2.421C293.374 2.225 296.265 2.07799 298.813 1.98L300.577 7.71299L287.494 11.535C287.494 16.925 287.494 22.609 287.494 28.587C287.592 34.467 287.641 40.984 287.641 48.138C287.641 55.292 287.543 63.573 287.347 72.981ZM366.21 44.463V56.811C363.956 56.419 362.045 56.125 360.477 55.929C358.909 55.635 357.194 55.439 355.332 55.341C353.568 55.145 351.167 55.047 348.129 55.047C345.777 55.047 343.229 55.096 340.485 55.194C337.839 55.292 334.899 55.586 331.665 56.076V45.198C335.095 45.492 338.035 45.737 340.485 45.933C343.033 46.031 345.483 46.08 347.835 46.08C350.873 46.08 353.323 46.031 355.185 45.933C357.047 45.737 358.762 45.541 360.33 45.345C361.996 45.051 363.956 44.757 366.21 44.463ZM370.473 32.262C370.375 35.202 370.228 38.142 370.032 41.082C369.934 43.924 369.885 46.913 369.885 50.049C369.885 53.283 369.934 56.762 370.032 60.486C370.228 64.112 370.375 66.954 370.473 69.012H362.388L357.537 53.724V47.403L362.388 32.262H370.473ZM388.407 99C379.783 98.706 361.212 98.559 332.694 98.559C329.264 98.559 325.932 98.608 322.698 98.706C319.464 98.706 315.152 98.804 309.762 99L307.998 93.414L320.934 90.327C321.13 82.389 321.277 74.598 321.375 66.954C321.571 59.212 321.669 51.47 321.669 43.728C321.669 37.554 321.571 31.87 321.375 26.676C321.277 21.482 321.13 16.337 320.934 11.241L307.998 7.71299L309.909 1.98C314.809 2.17599 319.219 2.32299 323.139 2.421C327.059 2.519 330.44 2.568 333.282 2.568C336.124 2.568 339.554 2.568 343.572 2.568C347.59 2.568 351.804 2.568 356.214 2.568C360.624 2.47 364.887 2.421 369.003 2.421C373.119 2.32299 376.745 2.27399 379.881 2.27399C383.115 2.17599 385.467 2.07799 386.937 1.98C386.643 8.154 386.398 13.642 386.202 18.444C386.006 23.148 385.859 27.362 385.761 31.086H376.353L373.707 15.651C371.257 14.377 368.317 13.446 364.887 12.858C361.457 12.27 357.831 11.976 354.009 11.976C352.245 11.976 350.432 12.074 348.57 12.27C346.806 12.368 344.993 12.515 343.131 12.711C343.033 21.531 342.935 29.861 342.837 37.701C342.837 45.541 342.837 53.087 342.837 60.339C342.837 64.847 342.837 69.453 342.837 74.157C342.935 78.861 343.033 83.761 343.131 88.857C344.797 89.053 346.512 89.249 348.276 89.445C350.04 89.543 351.804 89.592 353.568 89.592C357.488 89.592 361.31 89.298 365.034 88.71C368.758 88.122 371.845 87.191 374.295 85.917L377.676 68.13H387.084C387.084 72.638 387.182 77.685 387.378 83.271C387.672 88.759 388.015 94.002 388.407 99ZM437.588 0.0689945C442.978 0.0689945 448.466 0.705995 454.052 1.98C459.638 3.156 464.44 4.773 468.458 6.831C467.478 11.633 466.596 15.847 465.812 19.473C465.028 23.001 464.244 26.676 463.46 30.498H454.052L452.582 14.475C451.21 12.515 449.054 11.045 446.114 10.065C443.272 8.98699 440.283 8.44799 437.147 8.44799C433.325 8.44799 429.895 9.52599 426.857 11.682C423.819 13.838 422.3 16.974 422.3 21.09C422.3 24.324 423.476 27.068 425.828 29.322C428.278 31.478 431.365 33.487 435.089 35.349C438.911 37.113 442.929 38.975 447.143 40.935C451.357 42.895 455.326 45.247 459.05 47.991C462.872 50.637 465.959 53.969 468.311 57.987C470.761 62.005 471.986 67.003 471.986 72.981C471.986 79.449 470.173 84.741 466.547 88.857C462.921 92.875 458.217 95.815 452.435 97.677C446.751 99.539 440.675 100.47 434.207 100.47C428.229 100.47 422.349 99.735 416.567 98.265C410.785 96.795 405.787 94.737 401.573 92.091C402.651 87.681 403.533 83.761 404.219 80.331C405.003 76.803 405.738 72.638 406.424 67.836H415.979L418.037 86.946C420.291 88.514 422.692 89.739 425.24 90.621C427.886 91.503 430.63 91.944 433.472 91.944C438.078 91.944 442.096 90.817 445.526 88.563C449.054 86.211 450.818 82.389 450.818 77.097C450.818 72.981 449.642 69.649 447.29 67.101C445.036 64.553 442.096 62.397 438.47 60.633C434.844 58.869 430.973 57.154 426.857 55.488C422.839 53.822 419.017 51.862 415.391 49.608C411.765 47.354 408.776 44.463 406.424 40.935C404.17 37.407 403.043 32.85 403.043 27.264C403.043 21.188 404.611 16.141 407.747 12.123C410.981 8.105 415.195 5.116 420.389 3.156C425.681 1.098 431.414 0.0689945 437.588 0.0689945ZM539.88 10.8C539.782 20.502 539.733 29.126 539.733 36.672C539.733 44.12 539.733 51.225 539.733 57.987C539.733 62.985 539.733 67.983 539.733 72.981C539.733 77.979 539.782 83.516 539.88 89.592L555.462 93.414L553.551 99C551.003 98.804 547.426 98.706 542.82 98.706C538.312 98.608 533.706 98.559 529.002 98.559C524.494 98.559 519.937 98.608 515.331 98.706C510.823 98.804 507.05 98.902 504.012 99L501.954 93.414L517.83 89.592C518.026 82.34 518.173 75.725 518.271 69.747C518.467 63.671 518.565 57.546 518.565 51.372C518.565 45.59 518.467 39.416 518.271 32.85C518.173 26.186 518.026 18.836 517.83 10.8H539.88ZM573.396 1.98C572.71 7.958 572.269 13.691 572.073 19.179C571.877 24.569 571.779 29.567 571.779 34.173H562.224L558.402 12.858C556.736 12.662 554.874 12.564 552.816 12.564C550.758 12.466 548.7 12.417 546.642 12.417C543.604 12.417 540.566 12.515 537.528 12.711C534.49 12.907 531.746 13.25 529.296 13.74C526.748 13.25 523.857 12.956 520.623 12.858C517.389 12.662 514.155 12.564 510.921 12.564C509.059 12.564 507.246 12.613 505.482 12.711C503.718 12.711 502.052 12.76 500.484 12.858L496.662 34.173H487.107C487.009 29.567 486.813 24.618 486.519 19.326C486.225 14.034 485.784 8.252 485.196 1.98C488.528 2.07799 492.595 2.17599 497.397 2.27399C502.297 2.372 507.54 2.47 513.126 2.568C518.81 2.568 524.543 2.568 530.325 2.568C536.205 2.568 541.889 2.568 547.377 2.568C552.865 2.47 557.863 2.372 562.371 2.27399C566.879 2.17599 570.554 2.07799 573.396 1.98ZM629.98 1.98L631.891 7.71299L618.514 11.241C618.514 19.571 618.465 26.921 618.367 33.291C618.367 39.661 618.367 45.688 618.367 51.372C618.367 56.958 618.367 62.838 618.367 69.012C618.367 75.186 618.416 82.291 618.514 90.327L631.891 93.414L629.98 99C624.688 98.706 617.24 98.559 607.636 98.559C603.128 98.559 598.963 98.608 595.141 98.706C591.319 98.804 587.889 98.902 584.851 99L582.94 93.414L596.464 90.327C596.66 82.389 596.807 75.333 596.905 69.159C597.101 62.985 597.199 57.105 597.199 51.519C597.199 45.835 597.15 39.808 597.052 33.438C596.954 26.97 596.758 19.571 596.464 11.241L582.94 7.71299L584.851 1.98C588.673 2.17599 592.397 2.32299 596.023 2.421C599.649 2.519 603.716 2.568 608.224 2.568C612.242 2.568 616.211 2.519 620.131 2.421C624.051 2.225 627.334 2.07799 629.98 1.98ZM721.205 76.068L726.791 83.418C720.617 89.102 714.639 93.267 708.857 95.913C703.075 98.461 696.411 99.735 688.865 99.735C679.555 99.735 671.372 97.628 664.316 93.414C657.26 89.102 651.772 83.222 647.852 75.774C644.03 68.228 642.119 59.555 642.119 49.755C642.119 43.581 643.099 37.554 645.059 31.674C647.019 25.794 649.959 20.502 653.879 15.798C657.799 11.094 662.748 7.37 668.726 4.626C674.802 1.784 681.858 0.362999 689.894 0.362999C696.068 0.362999 702.193 1.049 708.269 2.421C714.345 3.69499 720.078 5.60599 725.468 8.154C724.488 12.368 723.508 16.729 722.528 21.237C721.646 25.647 720.813 30.008 720.029 34.32H711.503L708.563 17.268C704.741 14.426 700.233 12.466 695.039 11.388C689.943 10.212 684.651 9.62399 679.163 9.62399C673.185 12.858 668.971 17.758 666.521 24.324C664.071 30.89 662.846 38.24 662.846 46.374C662.846 55.096 664.169 62.642 666.815 69.012C669.461 75.284 673.087 80.135 677.693 83.565C682.299 86.897 687.493 88.563 693.275 88.563C698.665 88.563 703.369 87.534 707.387 85.476C711.503 83.418 716.109 80.282 721.205 76.068ZM776.09 53.43V65.631H739.046V53.43H776.09Z" fill="white"/>
<path d="M868.061 76.068L873.647 83.418C867.473 89.102 861.495 93.267 855.713 95.913C849.931 98.461 843.267 99.735 835.721 99.735C826.411 99.735 818.228 97.628 811.172 93.414C804.116 89.102 798.628 83.222 794.708 75.774C790.886 68.228 788.975 59.555 788.975 49.755C788.975 43.581 789.955 37.554 791.915 31.674C793.875 25.794 796.815 20.502 800.735 15.798C804.655 11.094 809.604 7.37 815.582 4.626C821.658 1.784 828.714 0.362999 836.75 0.362999C842.924 0.362999 849.049 1.049 855.125 2.421C861.201 3.69499 866.934 5.60599 872.324 8.154C871.344 12.368 870.364 16.729 869.384 21.237C868.502 25.647 867.669 30.008 866.885 34.32H858.359L855.419 17.268C851.597 14.426 847.089 12.466 841.895 11.388C836.799 10.212 831.507 9.62399 826.019 9.62399C820.041 12.858 815.827 17.758 813.377 24.324C810.927 30.89 809.702 38.24 809.702 46.374C809.702 55.096 811.025 62.642 813.671 69.012C816.317 75.284 819.943 80.135 824.549 83.565C829.155 86.897 834.349 88.563 840.131 88.563C845.521 88.563 850.225 87.534 854.243 85.476C858.359 83.418 862.965 80.282 868.061 76.068ZM935.294 1.39199C941.076 17.562 947.25 33.193 953.816 48.285C960.48 63.279 966.605 77.293 972.191 90.327L983.657 93.414L981.746 99C978.708 98.804 975.278 98.706 971.456 98.706C967.732 98.608 964.351 98.559 961.313 98.559C959.549 98.559 957.197 98.608 954.257 98.706C951.415 98.706 948.573 98.755 945.731 98.853C942.889 98.853 940.586 98.902 938.822 99L936.764 93.414L948.23 90.327C945.29 82.781 941.566 73.618 937.058 62.838C932.648 51.96 927.895 40.445 922.799 28.293L935.294 1.39199ZM935.294 1.39199C934.608 3.156 933.922 4.773 933.236 6.24299C932.648 7.71299 932.011 9.47699 931.325 11.535C930.639 13.593 929.904 16.386 929.12 19.914C927.258 25.01 925.151 30.743 922.799 37.113C920.545 43.385 918.193 49.804 915.743 56.37C913.391 62.838 911.235 69.061 909.275 75.039C907.315 80.919 905.796 86.015 904.718 90.327L915.596 93.414L913.685 99C907.413 98.706 901.631 98.559 896.339 98.559C891.439 98.559 886.343 98.706 881.051 99L879.14 93.414L890.018 90.327C891.88 86.897 894.036 82.585 896.486 77.391C899.034 72.099 901.68 66.268 904.424 59.898C907.266 53.528 910.108 46.913 912.95 40.053C915.792 33.193 918.487 26.48 921.035 19.914C923.583 13.25 925.837 7.076 927.797 1.39199H935.294ZM948.965 65.925V77.391C944.751 76.901 940.733 76.607 936.911 76.509C933.187 76.411 929.757 76.362 926.621 76.362C923.289 76.362 920.006 76.411 916.772 76.509C913.636 76.607 910.157 76.901 906.335 77.391V66.072C910.157 66.562 913.636 66.905 916.772 67.101C920.006 67.297 923.289 67.395 926.621 67.395C929.757 67.395 933.187 67.297 936.911 67.101C940.733 66.905 944.751 66.513 948.965 65.925ZM1037.44 1.98C1044.79 1.98 1050.76 3.156 1055.37 5.50799C1060.07 7.76199 1063.55 10.8 1065.81 14.622C1068.06 18.346 1069.19 22.462 1069.19 26.97C1069.19 30.302 1068.5 33.781 1067.13 37.407C1065.86 41.033 1063.8 44.414 1060.96 47.55C1058.11 50.588 1054.39 53.087 1049.78 55.047C1045.18 56.909 1039.64 57.84 1033.17 57.84C1029.84 57.84 1026.85 57.742 1024.21 57.546C1021.56 57.35 1018.62 56.909 1015.39 56.223V46.962C1018.52 47.648 1021.36 48.236 1023.91 48.726C1026.46 49.118 1028.91 49.314 1031.26 49.314C1032.44 49.314 1033.57 49.265 1034.64 49.167C1035.82 48.971 1037.04 48.775 1038.32 48.579C1040.57 46.815 1042.48 44.414 1044.05 41.376C1045.62 38.338 1046.4 33.879 1046.4 27.999C1046.4 22.119 1044.88 17.66 1041.85 14.622C1038.91 11.584 1035.28 10.065 1030.97 10.065C1028.22 10.065 1025.24 10.506 1022 11.388C1022 16.876 1022 22.021 1022 26.823C1022 31.527 1022 36.035 1022 40.347C1022 48.775 1022 56.86 1022 64.602C1022 72.344 1022 80.919 1022 90.327L1034.94 93.414L1032.88 99C1030.33 98.804 1027.44 98.706 1024.21 98.706C1020.97 98.608 1016.32 98.559 1010.24 98.559C1005.73 98.559 1001.81 98.608 998.481 98.706C995.247 98.804 992.111 98.902 989.073 99L986.868 93.414L999.804 90.327C1000.1 83.663 1000.29 77.146 1000.39 70.776C1000.49 64.406 1000.54 58.33 1000.54 52.548C1000.54 44.904 1000.44 37.652 1000.25 30.792C1000.15 23.834 1000 17.366 999.804 11.388L986.868 7.56599L988.485 1.98C990.543 2.07799 992.944 2.17599 995.688 2.27399C998.53 2.372 1001.32 2.47 1004.07 2.568C1006.81 2.568 1009.07 2.568 1010.83 2.568C1013.87 2.568 1016.51 2.519 1018.77 2.421C1021.02 2.32299 1023.52 2.22499 1026.26 2.12699C1029.11 2.029 1032.83 1.98 1037.44 1.98ZM1044.2 50.931C1045.67 53.479 1047.87 57.007 1050.81 61.515C1053.85 65.925 1057.28 70.678 1061.1 75.774C1064.93 80.87 1068.75 85.721 1072.57 90.327L1085.8 93.414L1083.45 99C1081.68 98.804 1079.18 98.706 1075.95 98.706C1072.81 98.706 1069.97 98.706 1067.42 98.706C1064.97 98.706 1062.03 98.706 1058.6 98.706C1055.17 98.706 1052.48 98.804 1050.52 99C1048.46 95.276 1046.16 91.209 1043.61 86.799C1041.06 82.389 1038.51 78.028 1035.97 73.716C1033.42 69.306 1031.12 65.386 1029.06 61.956C1027 58.428 1025.38 55.831 1024.21 54.165C1025.09 53.185 1026.51 52.499 1028.47 52.107C1030.53 51.617 1032.68 51.323 1034.94 51.225C1037.29 51.029 1039.35 50.931 1041.11 50.931C1042.88 50.931 1043.9 50.931 1044.2 50.931Z" fill="#E32E2E"/>
</svg>
