<svg width="885" height="100" viewBox="0 0 885 100" fill="none" xmlns="http://www.w3.org/2000/svg">
<path d="M19.2052 99H0.305157V0.999993H21.8652L53.0852 74.36L84.3052 0.999993H105.865V99H86.9652V35.72L60.5052 99H45.6652L19.2052 35.72V99ZM169.656 16.82H164.616L135.776 99H116.316L151.456 0.999993H182.676L217.816 99H198.356L169.656 16.82ZM137.596 60.64H194.716V76.46H137.596V60.64ZM242.072 71.28C242.539 73.8933 243.565 76.18 245.152 78.14C246.739 80.1 248.792 81.64 251.312 82.76C253.925 83.7867 256.959 84.3 260.412 84.3C265.825 84.3 269.885 83.0867 272.592 80.66C275.299 78.14 276.652 75.1067 276.652 71.56C276.652 68.76 275.812 66.4267 274.132 64.56C272.452 62.6933 270.072 61.1067 266.992 59.8C264.005 58.4933 260.505 57.2333 256.492 56.02C252.759 54.9 249.072 53.6867 245.432 52.38C241.792 51.0733 238.479 49.44 235.492 47.48C232.505 45.52 230.125 43 228.352 39.92C226.672 36.7467 225.832 32.78 225.832 28.02C225.832 22.0467 227.279 16.96 230.172 12.76C233.159 8.56 237.219 5.38666 242.352 3.24C247.485 1.09333 253.412 0.0199976 260.132 0.0199976C265.825 0.0199976 270.959 0.859998 275.532 2.54C280.105 4.12666 283.932 6.50666 287.012 9.68C290.185 12.76 292.519 16.5867 294.012 21.16L276.512 25.92C276.045 23.8667 275.019 22.0933 273.432 20.6C271.845 19.1067 269.932 17.94 267.692 17.1C265.452 16.1667 263.025 15.7 260.412 15.7C257.612 15.6067 255.045 16.0267 252.712 16.96C250.379 17.8933 248.512 19.2467 247.112 21.02C245.712 22.7933 245.012 24.8467 245.012 27.18C245.012 29.7933 245.805 31.8933 247.392 33.48C248.979 34.9733 251.079 36.28 253.692 37.4C256.305 38.4267 259.245 39.4533 262.512 40.48C266.432 41.6 270.352 42.9067 274.272 44.4C278.192 45.8 281.785 47.62 285.052 49.86C288.319 52.0067 290.932 54.76 292.892 58.12C294.945 61.48 295.972 65.7267 295.972 70.86C295.972 76.2733 294.665 81.1733 292.052 85.56C289.532 89.9467 285.705 93.4467 280.572 96.06C275.439 98.6733 268.999 99.98 261.252 99.98C254.905 99.98 249.119 99.0467 243.892 97.18C238.759 95.3133 234.512 92.6067 231.152 89.06C227.792 85.42 225.599 81.1267 224.572 76.18L242.072 71.28ZM306.444 0.999993H385.964V16.82H355.724V99H336.824V16.82H306.444V0.999993ZM468.951 16.82H418.971V41.74H456.351V57H418.971V83.18H468.951V99H400.071V0.999993H468.951V16.82ZM541.387 31.24C541.387 26.8533 540.033 23.3533 537.327 20.74C534.713 18.1267 530.607 16.82 525.007 16.82H504.147V45.8H525.007C528.74 45.8 531.82 45.24 534.247 44.12C536.673 42.9067 538.447 41.2267 539.567 39.08C540.78 36.84 541.387 34.2267 541.387 31.24ZM525.567 0.999993C533.5 0.999993 540.033 2.39999 545.167 5.2C550.393 7.90666 554.267 11.5933 556.787 16.26C559.4 20.8333 560.707 25.8267 560.707 31.24C560.707 34.88 560.053 38.52 558.747 42.16C557.44 45.7067 555.387 48.9733 552.587 51.96C549.787 54.8533 546.147 57.1867 541.667 58.96C537.28 60.7333 531.913 61.62 525.567 61.62H504.147V99H485.247V0.999993H525.567ZM536.207 55.32L562.667 99H541.527L516.187 55.32H536.207ZM613.14 0.999993H684.96V8.42H653.32V99H644.92V8.42H613.14V0.999993ZM739.219 8.42H734.599L700.999 99H692.319L728.719 0.999993H744.959L781.219 99H772.679L739.219 8.42ZM708.419 64.56H765.539V71.98H708.419V64.56ZM836.987 99.98C830.08 99.98 823.687 98.7667 817.807 96.34C811.927 93.9133 806.793 90.5067 802.407 86.12C798.02 81.64 794.613 76.3667 792.187 70.3C789.853 64.14 788.687 57.3733 788.687 50C788.687 42.6267 789.853 35.9067 792.187 29.84C794.613 23.68 798.02 18.4067 802.407 14.02C806.793 9.53999 811.927 6.08666 817.807 3.65999C823.687 1.23333 830.08 0.0199976 836.987 0.0199976C843.8 0.0199976 850.1 1.23333 855.887 3.65999C861.767 6.08666 866.853 9.53999 871.147 14.02C875.533 18.4067 878.94 23.68 881.367 29.84C883.793 35.9067 885.007 42.6267 885.007 50C885.007 57.3733 883.793 64.14 881.367 70.3C878.94 76.3667 875.533 81.64 871.147 86.12C866.853 90.5067 861.767 93.9133 855.887 96.34C850.1 98.7667 843.8 99.98 836.987 99.98ZM836.987 92.56C844.36 92.56 850.987 90.8333 856.867 87.38C862.84 83.9267 867.553 79.0267 871.007 72.68C874.553 66.3333 876.327 58.7733 876.327 50C876.327 41.2267 874.553 33.6667 871.007 27.32C867.553 20.88 862.84 15.98 856.867 12.62C850.987 9.16666 844.36 7.43999 836.987 7.43999C829.52 7.43999 822.8 9.16666 816.827 12.62C810.853 15.98 806.093 20.88 802.547 27.32C799.093 33.6667 797.367 41.2267 797.367 50C797.367 58.7733 799.093 66.3333 802.547 72.68C806.093 79.0267 810.853 83.9267 816.827 87.38C822.8 90.8333 829.52 92.56 836.987 92.56Z" fill="white"/>
</svg>
