<svg width="690" height="168" viewBox="0 0 690 168" fill="none" xmlns="http://www.w3.org/2000/svg">
<path d="M35.7001 67.34C35.7001 68.18 36.1201 68.9 36.9601 69.5C37.9201 69.98 39.9601 70.76 43.0801 71.84C50.2801 74.36 57.1801 77.84 63.7801 82.28C70.3801 86.6 73.6801 92.78 73.6801 100.82C73.6801 109.94 70.6201 117.08 64.5001 122.24C58.5001 127.4 49.4401 129.98 37.3201 129.98C33.7201 129.98 27.8401 128.96 19.6801 126.92C11.6401 124.88 5.10008 121.88 0.0600785 117.92L9.24008 95.42C12.7201 97.22 16.9201 99.02 21.8401 100.82C26.8801 102.5 30.9601 103.34 34.0801 103.34C36.0001 103.34 37.4401 102.98 38.4001 102.26C39.3601 101.54 39.8401 100.88 39.8401 100.28C39.8401 99.44 39.3601 98.72 38.4001 98.12C37.4401 97.4 35.6401 96.62 33.0001 95.78C25.8001 93.26 18.7801 89.84 11.9401 85.52C5.22008 81.08 1.86008 74.84 1.86008 66.8C1.86008 57.68 5.28008 50.54 12.1201 45.38C18.9601 40.22 28.4401 37.64 40.5601 37.64C44.1601 37.64 49.2601 38.54 55.8601 40.34C62.5801 42.02 68.4601 44.84 73.5001 48.8L64.3201 71.3C60.8401 69.5 57.1801 67.88 53.3401 66.44C49.5001 65 46.0201 64.28 42.9001 64.28C40.2601 64.28 38.4001 64.64 37.3201 65.36C36.2401 66.08 35.7001 66.74 35.7001 67.34ZM89.4582 128V2.89999L122.218 0.919995V43.4C125.818 41.84 129.898 40.52 134.458 39.44C139.018 38.24 143.398 37.64 147.598 37.64C159.958 37.64 168.778 41.12 174.058 48.08C179.338 54.92 181.978 63.56 181.978 74V128H149.218V74.72C149.218 71.36 148.198 68.78 146.158 66.98C144.118 65.18 141.598 64.28 138.598 64.28C136.558 64.28 133.978 64.82 130.858 65.9C127.738 66.98 124.858 68.12 122.218 69.32V128H89.4582ZM196.382 83.9C196.382 69.26 201.182 57.92 210.782 49.88C220.502 41.72 232.202 37.64 245.882 37.64C260.282 37.64 272.102 41.6 281.342 49.52C290.702 57.44 295.382 69.2 295.382 84.8C295.382 99.44 290.522 110.66 280.802 118.46C271.082 126.14 259.202 129.98 245.162 129.98C231.122 129.98 219.482 126.2 210.242 118.64C201.002 111.08 196.382 99.5 196.382 83.9ZM230.222 83.9C230.222 89.78 231.542 94.52 234.182 98.12C236.822 101.6 240.602 103.34 245.522 103.34C250.682 103.34 254.642 101.78 257.402 98.66C260.162 95.54 261.542 90.92 261.542 84.8C261.542 78.92 260.222 74.06 257.582 70.22C254.942 66.26 251.162 64.28 246.242 64.28C241.082 64.28 237.122 66.02 234.362 69.5C231.602 72.98 230.222 77.78 230.222 83.9ZM371.586 83.72C371.586 78.56 370.146 74.06 367.266 70.22C364.506 66.26 360.486 64.28 355.206 64.28C352.926 64.28 350.886 64.58 349.086 65.18C347.286 65.78 345.726 66.44 344.406 67.16V97.94C346.086 99.5 348.186 100.82 350.706 101.9C353.226 102.86 355.626 103.34 357.906 103.34C362.826 103.34 366.306 101.18 368.346 96.86C370.506 92.42 371.586 88.04 371.586 83.72ZM311.646 167.42V40.88H328.026L333.606 48.44C338.046 44.96 342.726 42.32 347.646 40.52C352.686 38.6 357.966 37.64 363.486 37.64C377.526 37.64 388.026 41.96 394.986 50.6C401.946 59.24 405.426 70.04 405.426 83C405.426 96.08 401.946 107.18 394.986 116.3C388.146 125.42 377.046 129.98 361.686 129.98C358.806 129.98 355.866 129.56 352.866 128.72C349.866 128 347.046 127.04 344.406 125.84V165.62L311.646 167.42ZM416.285 83.9C416.285 69.26 421.085 57.92 430.685 49.88C440.405 41.72 452.105 37.64 465.785 37.64C480.185 37.64 492.005 41.6 501.245 49.52C510.605 57.44 515.285 69.2 515.285 84.8C515.285 99.44 510.425 110.66 500.705 118.46C490.985 126.14 479.105 129.98 465.065 129.98C451.025 129.98 439.385 126.2 430.145 118.64C420.905 111.08 416.285 99.5 416.285 83.9ZM450.125 83.9C450.125 89.78 451.445 94.52 454.085 98.12C456.725 101.6 460.505 103.34 465.425 103.34C470.585 103.34 474.545 101.78 477.305 98.66C480.065 95.54 481.445 90.92 481.445 84.8C481.445 78.92 480.125 74.06 477.485 70.22C474.845 66.26 471.065 64.28 466.145 64.28C460.985 64.28 457.025 66.02 454.265 69.5C451.505 72.98 450.125 77.78 450.125 83.9ZM528.308 40.7H597.968L599.588 58.88L566.108 102.26H599.768L602.828 128H528.308L524.348 111.08L556.748 67.52L558.368 66.44H531.368L528.308 40.7ZM615.144 40.7H684.804L686.424 58.88L652.944 102.26H686.604L689.664 128H615.144L611.184 111.08L643.584 67.52L645.204 66.44H618.204L615.144 40.7Z" fill="#0095FF"/>
</svg>
