<svg width="1097" height="102" viewBox="0 0 1097 102" fill="none" xmlns="http://www.w3.org/2000/svg">
<path d="M23.44 100V18.24H0.9V2.42H64.04V18.24H41.5V100H23.44ZM77.4767 100V2.42H128.437V17.68H94.9767V40.5H121.577V55.34H94.9767V84.18H131.237V100H77.4767ZM213.903 101.96L167.143 48.62L162.803 43.02L163.503 56.6V100H146.283V0.739993H147.823L193.883 54.5L198.783 60.87L198.083 47.5V2.42H215.303V101.96H213.903ZM302.907 101.96L256.147 48.62L251.807 43.02L252.507 56.6V100H235.287V0.739993H236.827L282.887 54.5L287.787 60.87L287.087 47.5V2.42H304.307V101.96H302.907ZM324.801 100V2.42H342.721V100H324.801ZM387.68 101.54C380.82 101.54 374.823 100.397 369.69 98.11C364.556 95.8233 360.8 93.42 358.42 90.9L365.56 76.2C366.54 77.46 368.08 78.8833 370.18 80.47C372.326 82.0567 374.8 83.4567 377.6 84.67C380.446 85.8367 383.386 86.42 386.42 86.42C389.92 86.42 392.953 85.44 395.52 83.48C398.133 81.52 399.44 78.6267 399.44 74.8C399.44 71.02 398.086 68.0333 395.38 65.84C392.72 63.6 389.08 61.08 384.46 58.28C380.68 55.9933 376.97 53.5667 373.33 51C369.69 48.3867 366.656 45.2133 364.23 41.48C361.85 37.7 360.66 32.94 360.66 27.2C360.66 19.5 363.11 13.1767 368.01 8.22999C372.956 3.23666 380.12 0.739993 389.5 0.739993C394.26 0.739993 398.296 1.29999 401.61 2.42C404.97 3.53999 407.676 4.82333 409.73 6.26999C411.83 7.71666 413.393 8.90666 414.42 9.83999L406.58 24.12C405.926 23.1867 404.83 22.0433 403.29 20.69C401.75 19.3367 399.86 18.1467 397.62 17.12C395.38 16.0933 392.906 15.58 390.2 15.58C386.42 15.58 383.573 16.6767 381.66 18.87C379.793 21.0167 378.86 23.56 378.86 26.5C378.86 30.28 380.236 33.36 382.99 35.74C385.79 38.12 389.173 40.5 393.14 42.88C397.526 45.4933 401.586 48.13 405.32 50.79C409.053 53.4033 412.063 56.5533 414.35 60.24C416.636 63.88 417.78 68.5467 417.78 74.24C417.78 82.78 415.096 89.4767 409.73 94.33C404.363 99.1367 397.013 101.54 387.68 101.54ZM495.559 101.68C486.739 101.68 479.296 99.6033 473.229 95.45C467.209 91.25 462.636 85.37 459.509 77.81C456.383 70.25 454.819 61.36 454.819 51.14C454.819 41.0133 456.359 32.17 459.439 24.61C462.519 17.05 467.046 11.1933 473.019 7.04C479.039 2.83999 486.413 0.739993 495.139 0.739993C504.239 0.739993 511.799 2.86333 517.819 7.11C523.886 11.3567 528.436 17.26 531.469 24.82C534.503 32.38 536.019 41.1533 536.019 51.14C536.019 61.36 534.456 70.25 531.329 77.81C528.203 85.37 523.629 91.25 517.609 95.45C511.589 99.6033 504.239 101.68 495.559 101.68ZM495.559 86.7C501.673 86.7 506.829 83.76 511.029 77.88C515.276 71.9533 517.399 62.9 517.399 50.72C517.399 39.0067 515.416 30.1867 511.449 24.26C507.529 18.2867 502.093 15.3 495.139 15.3C488.373 15.3 483.076 18.2867 479.249 24.26C475.469 30.2333 473.579 39.1 473.579 50.86C473.579 63.04 475.586 72.07 479.599 77.95C483.659 83.7833 488.979 86.7 495.559 86.7ZM551.518 100V2.42H577.698C584.324 2.42 590.344 3.42333 595.758 5.43C601.171 7.43666 605.488 10.9367 608.708 15.93C611.928 20.8767 613.538 27.76 613.538 36.58C613.538 42.9733 612.324 49.0167 609.898 54.71C607.471 60.3567 603.644 64.9533 598.418 68.5C593.238 72.0467 586.518 73.82 578.258 73.82H569.578V100H551.518ZM576.578 16.56H569.578V59.12H576.998C583.158 59.12 587.778 57.2767 590.858 53.59C593.938 49.9033 595.478 44.56 595.478 37.56C595.478 30.42 594.078 25.1467 591.278 21.74C588.478 18.2867 583.578 16.56 576.578 16.56ZM628.043 100V2.42H679.003V17.68H645.543V40.5H672.143V55.34H645.543V84.18H681.803V100H628.043ZM764.47 101.96L717.71 48.62L713.37 43.02L714.07 56.6V100H696.85V0.739993H698.39L744.45 54.5L749.35 60.87L748.65 47.5V2.42H765.87V101.96H764.47ZM847.304 101.68C842.217 101.68 837.317 100.653 832.604 98.6C827.891 96.5 823.644 93.35 819.864 89.15C816.131 84.9033 813.167 79.5133 810.974 72.98C808.781 66.4467 807.684 58.7467 807.684 49.88C807.684 39.24 809.527 30.28 813.214 23C816.947 15.6733 821.917 10.1433 828.124 6.41C834.377 2.62999 841.284 0.739993 848.844 0.739993C853.977 0.739993 858.154 1.22999 861.374 2.20999C864.641 3.19 867.231 4.35666 869.144 5.70999C871.104 7.06333 872.691 8.3 873.904 9.42L866.064 24.12C864.057 21.9267 861.981 20.1767 859.834 18.87C857.687 17.5167 854.257 16.84 849.544 16.84C844.784 16.84 840.724 18.2167 837.364 20.97C834.051 23.7233 831.507 27.5267 829.734 32.38C828.007 37.1867 827.144 42.6933 827.144 48.9C827.144 61.08 829.174 70.2733 833.234 76.48C837.341 82.64 842.264 85.72 848.004 85.72C852.437 85.72 856.217 85.09 859.344 83.83C862.471 82.57 864.804 81.1467 866.344 79.56L874.044 93.42C872.737 94.4933 870.987 95.6833 868.794 96.99C866.647 98.25 863.824 99.3467 860.324 100.28C856.871 101.213 852.531 101.68 847.304 101.68ZM889.487 100V2.42H907.267V84.6H936.387V100H889.487ZM979.765 101.82C973.371 101.82 967.538 100.723 962.265 98.53C957.038 96.29 952.861 92.51 949.735 87.19C946.608 81.8233 945.045 74.4733 945.045 65.14V2.42H963.245V67.1C963.245 72.6067 964.131 76.76 965.905 79.56C967.725 82.3133 969.895 84.18 972.415 85.16C974.935 86.0933 977.291 86.56 979.485 86.56C981.771 86.56 984.128 86.0933 986.555 85.16C989.028 84.2267 991.105 82.3833 992.785 79.63C994.465 76.83 995.305 72.6533 995.305 67.1V2.42H1013.5V65.14C1013.5 74.4733 1011.99 81.8233 1008.95 87.19C1005.92 92.51 1001.84 96.29 996.705 98.53C991.618 100.723 985.971 101.82 979.765 101.82ZM1032.77 100V2.42H1058.81C1070.29 2.42 1078.64 4.70666 1083.87 9.28C1089.09 13.8067 1091.71 20.2 1091.71 28.46C1091.71 32.1467 1090.82 35.9033 1089.05 39.73C1087.27 43.5567 1084.36 46.4267 1080.3 48.34C1085.85 49.6933 1089.96 52.4 1092.62 56.46C1095.28 60.52 1096.61 65.6533 1096.61 71.86C1096.61 80.4467 1093.67 87.2833 1087.79 92.37C1081.91 97.4567 1072.39 100 1059.23 100H1032.77ZM1058.81 16.28H1050.41V43.3H1061.75C1064.92 43.3 1067.42 42.5533 1069.24 41.06C1071.1 39.52 1072.41 37.6533 1073.16 35.46C1073.95 33.22 1074.35 31.0733 1074.35 29.02C1074.35 25.66 1073.6 23.07 1072.11 21.25C1070.66 19.3833 1068.75 18.1 1066.37 17.4C1063.99 16.6533 1061.47 16.28 1058.81 16.28ZM1060.35 56.32H1050.41V85.86H1061.19C1063.99 85.86 1066.67 85.4867 1069.24 84.74C1071.85 83.9933 1073.97 82.5467 1075.61 80.4C1077.29 78.2533 1078.13 75.08 1078.13 70.88C1078.13 66.6333 1077.24 63.4833 1075.47 61.43C1073.74 59.33 1071.5 57.9533 1068.75 57.3C1066.04 56.6467 1063.24 56.32 1060.35 56.32Z" fill="white"/>
</svg>
