<svg width="530" height="118" viewBox="0 0 530 118" fill="none" xmlns="http://www.w3.org/2000/svg">
<path d="M51.2325 116L13.6325 15.84H12.9925C13.2058 17.9733 13.3658 20.6933 13.4725 24C13.6858 27.3067 13.8458 30.9333 13.9525 34.88C14.0592 38.72 14.1125 42.6667 14.1125 46.72V116H0.8325V1.75999H22.1125L57.3125 95.36H57.9525L93.7925 1.75999H114.913V116H100.673V45.76C100.673 42.0267 100.726 38.3467 100.833 34.72C100.939 30.9867 101.099 27.52 101.313 24.32C101.526 21.0133 101.686 18.24 101.793 16H101.153L63.0725 116H51.2325ZM217.669 116L203.909 80.64H158.629L145.029 116H130.469L175.109 1.28H188.069L232.549 116H217.669ZM186.789 33.28C186.469 32.4267 185.935 30.88 185.189 28.64C184.442 26.4 183.695 24.1067 182.949 21.76C182.309 19.3067 181.775 17.44 181.349 16.16C180.815 18.2933 180.229 20.48 179.589 22.72C179.055 24.8533 178.469 26.8267 177.829 28.64C177.295 30.4533 176.815 32 176.389 33.28L163.429 67.84H199.589L186.789 33.28ZM280.816 1.75999C290.31 1.75999 298.256 2.66666 304.656 4.48C311.163 6.29333 316.016 9.28 319.216 13.44C322.523 17.6 324.176 23.1467 324.176 30.08C324.176 34.56 323.323 38.56 321.616 42.08C320.016 45.4933 317.563 48.3733 314.256 50.72C311.056 52.96 307.11 54.5067 302.416 55.36V56.16C307.216 56.9067 311.536 58.2933 315.376 60.32C319.323 62.3467 322.416 65.2267 324.656 68.96C326.896 72.6933 328.016 77.5467 328.016 83.52C328.016 90.4533 326.416 96.3733 323.216 101.28C320.016 106.08 315.43 109.76 309.456 112.32C303.59 114.773 296.55 116 288.336 116H248.176V1.75999H280.816ZM283.696 50.4C293.51 50.4 300.23 48.8533 303.856 45.76C307.483 42.56 309.296 37.8667 309.296 31.68C309.296 25.3867 307.056 20.9067 302.576 18.24C298.203 15.4667 291.163 14.08 281.456 14.08H262.576V50.4H283.696ZM262.576 62.4V103.84H285.616C295.75 103.84 302.79 101.867 306.736 97.92C310.683 93.9733 312.656 88.8 312.656 82.4C312.656 78.3467 311.75 74.8267 309.936 71.84C308.23 68.8533 305.296 66.56 301.136 64.96C297.083 63.2533 291.536 62.4 284.496 62.4H262.576ZM382.479 1.75999C397.412 1.75999 408.292 4.69333 415.119 10.56C421.945 16.4267 425.359 24.6933 425.359 35.36C425.359 40.0533 424.559 44.5867 422.959 48.96C421.465 53.2267 418.959 57.0667 415.439 60.48C411.919 63.8933 407.225 66.6133 401.359 68.64C395.492 70.56 388.292 71.52 379.759 71.52H366.639V116H352.239V1.75999H382.479ZM381.199 14.08H366.639V59.2H378.159C385.412 59.2 391.439 58.4533 396.239 56.96C401.039 55.36 404.612 52.8533 406.959 49.44C409.305 46.0267 410.479 41.5467 410.479 36C410.479 28.64 408.132 23.1467 403.439 19.52C398.745 15.8933 391.332 14.08 381.199 14.08ZM498.074 12.8C491.994 12.8 486.5 13.8667 481.594 16C476.687 18.0267 472.527 21.0667 469.114 25.12C465.7 29.0667 463.087 33.92 461.274 39.68C459.46 45.3333 458.554 51.7333 458.554 58.88C458.554 68.2667 459.994 76.4267 462.874 83.36C465.86 90.2933 470.234 95.6267 475.994 99.36C481.86 103.093 489.167 104.96 497.914 104.96C502.927 104.96 507.674 104.533 512.154 103.68C516.634 102.827 521.007 101.76 525.274 100.48V112.96C521.007 114.56 516.58 115.733 511.994 116.48C507.514 117.227 502.127 117.6 495.834 117.6C484.207 117.6 474.5 115.2 466.714 110.4C458.927 105.6 453.06 98.7733 449.114 89.92C445.274 81.0667 443.354 70.6667 443.354 58.72C443.354 50.08 444.527 42.1867 446.874 35.04C449.327 27.8933 452.847 21.7067 457.434 16.48C462.127 11.2533 467.887 7.25333 474.714 4.48C481.54 1.59999 489.38 0.159994 498.234 0.159994C504.1 0.159994 509.754 0.74666 515.194 1.91999C520.634 3.09333 525.487 4.74666 529.754 6.87999L523.994 19.04C520.474 17.44 516.527 16 512.154 14.72C507.887 13.44 503.194 12.8 498.074 12.8Z" fill="#FA8C16"/>
</svg>
